<svg width="1160" height="1016" viewBox="0 0 1160 1016" fill="none" xmlns="http://www.w3.org/2000/svg">
<g id="Frame 1" clip-path="url(#clip0_1_7)">
<rect width="1160" height="1016" fill="none"/>
<g id="tail">
<path d="M932.327 330.25C932.327 386.65 913.994 453.083 904.827 479.25L948.827 541.25C959.724 548.417 995.97 527.35 1005.02 499.75C1021.34 598.571 1113.19 599.054 1159.83 585.75C1137.99 569.917 1100.23 519.25 1123.83 443.25C1153.33 348.25 932.327 259.75 932.327 330.25Z" fill="#F1EDDC"/>
<path d="M1002.83 479.25C1009.23 598.45 1110.16 599.917 1159.83 585.75C1137.99 569.917 1100.23 519.25 1123.83 443.25C1153.33 348.25 932.327 259.75 932.327 330.25C932.327 386.65 913.994 453.083 904.827 479.25L948.827 541.25C959.724 548.417 995.97 527.35 1005.02 499.75" stroke="black" stroke-width="5"/>
</g>
<path id="Lfoot" d="M458.827 937.965C458.827 905.965 444.827 843.632 437.827 816.465V726.465C437.827 681.465 517.327 734.465 548.827 752.965C574.027 767.765 559.327 882.465 548.827 937.965C518.827 951.299 458.827 969.965 458.827 937.965Z" fill="#F1EDDC" stroke="black" stroke-width="5"/>
<g id="Lhand">
<path id="Vector 5" d="M257.406 612.333C257.406 612.333 263.406 574.333 305.906 546.833C338.24 534 405.406 511.633 415.406 524.833C427.906 541.333 349.406 587.333 341.906 598.333C343.906 603.933 338.74 616 335.906 621.333C343.506 637.733 339.073 659.5 335.906 668.333C328.775 675.242 319.861 692.842 305.906 697.333L275.406 687.833C275.406 670.333 276.406 634.333 257.406 612.333Z" fill="#F1EDDC"/>
<path id="Vector 11" d="M356.906 529.803C343.406 533.303 313.906 541.803 303.906 547.803C291.406 555.303 251.574 601.022 257.406 611.803C273.906 642.303 279.906 674.803 275.406 687.303L305.406 697.303C313.906 691.303 332.006 677.003 336.406 667.803C341.906 656.303 346.406 649.303 336.406 619.303C339.906 612.803 343.906 602.303 341.906 598.303C340.306 595.103 367.573 574.97 381.406 565.303" stroke="black" stroke-width="5"/>
</g>
<path id="body" d="M283.827 542.803C283.827 533.203 261.16 464.47 249.827 431.303L314.827 307.303L414.827 275.803C440.66 284.136 507.027 308.303 565.827 338.303C652.327 381.303 742.327 351.303 904.327 464.803C943.827 502.303 982.327 535.803 982.327 648.303C982.327 704.907 903.827 830.303 801.327 882.303C698.827 934.303 565.827 899.303 481.327 841.803C404.827 818.303 283.827 554.803 283.827 542.803Z" fill="#F1EDDC" stroke="black" stroke-width="5"/>
<g id="Head">
<g id="Head_2">
<path d="M592.051 231.471C597.543 255.159 573.267 289.801 569.799 312.593C526.361 324.768 502.639 296.345 488.049 298.7C485.014 298.89 483.779 302.326 481.123 306.465C462.542 323.176 476.08 372.91 457.862 389.875C432.665 413.339 374.835 409.126 338.528 417.545C286.431 485.057 192.062 476.838 149.457 452.145C128.835 440.194 110.506 403.691 102.6 369.596C101.429 324.7 45.0985 356.239 45.1697 316.701C183.89 113.648 134.011 51.2744 277.923 83.1189C339.726 50.8249 379.644 56.283 412.596 66.2641C466.838 114.253 479.816 120.218 498.864 135.056C532.043 160.901 581.956 187.933 592.051 231.471Z" fill="#F1EDDC"/>
<path d="M488.049 298.7C502.639 296.345 526.361 324.768 569.799 312.593C573.267 289.801 597.543 255.159 592.051 231.471C581.956 187.933 532.043 160.901 498.864 135.056C479.816 120.218 466.838 114.253 412.596 66.2641C379.644 56.283 339.726 50.8249 277.923 83.1189C134.011 51.2744 183.89 113.648 45.1697 316.701C45.0985 356.239 101.429 324.7 102.6 369.596C110.506 403.691 128.835 440.194 149.457 452.145C192.062 476.838 286.431 485.057 338.528 417.545C374.835 409.126 432.665 413.339 457.862 389.875C476.08 372.91 462.542 323.176 481.123 306.465C483.779 302.326 485.014 298.89 488.049 298.7ZM488.049 298.7C465.852 277.49 421.855 223.508 416.225 172.666M337.213 294.629C346.811 332.783 354.719 404.598 328.693 425.335M142.325 220.283C139.837 254.195 101.68 307.054 102.37 321.258C103.06 335.463 97.1914 374.767 126.159 425.068" stroke="black" stroke-width="5"/>
</g>
<ellipse id="Reye" cx="325.294" cy="199.803" rx="9.66865" ry="20.0822" transform="rotate(-27.995 325.294 199.803)" fill="#696363"/>
<ellipse id="Reye_2" cx="9.66865" cy="20.0822" rx="9.66865" ry="20.0822" transform="matrix(-0.80131 -0.598249 -0.598249 0.80131 189.915 201.927)" fill="#696363"/>
<g id="Brows">
<path id="RBrow" d="M343.243 141.411C327.761 129.365 294.642 137.502 280.017 143.076C279.194 190.97 367.661 200.962 367.55 200.475C367.438 199.987 362.595 156.469 343.243 141.411Z" fill="#D1B141" stroke="black" stroke-width="5"/>
<path id="LBrow" d="M136.361 158.97C151.121 146.05 184.655 152.259 199.577 156.979C203.166 204.746 115.424 219.832 115.507 219.339C115.59 218.846 117.911 175.121 136.361 158.97Z" fill="#D1B141" stroke="black" stroke-width="5"/>
</g>
<path id="snout" d="M216.893 318.918C209.55 297.62 181.782 307.471 168.816 315.059C157.931 335.61 178.773 355.524 190.554 362.913C202.393 357.122 224.235 340.216 216.893 318.918Z" fill="black" stroke="black" stroke-width="5"/>
</g>
<g id="Rhand">
<path id="Vector 5_2" d="M438.406 701.333C438.406 701.333 444.406 663.333 486.906 635.833C519.24 623 586.406 600.633 596.406 613.833C608.906 630.333 530.406 676.333 522.906 687.333C524.906 692.933 519.74 705 516.906 710.333C524.506 726.733 520.073 748.5 516.906 757.333C509.775 764.242 500.861 781.842 486.906 786.333L456.406 776.833C456.406 759.333 457.406 723.333 438.406 701.333Z" fill="#F1EDDC"/>
<path id="Vector 11_2" d="M537.906 618.803C524.406 622.303 494.906 630.803 484.906 636.803C472.406 644.303 432.574 690.022 438.406 700.803C454.906 731.303 460.906 763.803 456.406 776.303L486.406 786.303C494.906 780.303 513.006 766.003 517.406 756.803C522.906 745.303 527.406 738.303 517.406 708.303C520.906 701.803 524.906 691.303 522.906 687.303C521.306 684.103 548.573 663.97 562.406 654.303" stroke="black" stroke-width="5"/>
</g>
<g id="Rfoot">
<path id="Vector 8" d="M655.327 964.965C655.327 932.965 641.327 870.632 634.327 843.465V753.465C634.327 708.465 713.827 761.465 745.327 779.965C770.527 794.765 755.827 909.465 745.327 964.965C715.327 978.299 655.327 996.965 655.327 964.965Z" fill="#F1EDDC"/>
<path id="Vector 12" d="M633.827 804.803C633.827 811.47 633.827 826.703 633.827 834.303C633.827 843.803 653.827 912.303 653.827 929.803C653.827 947.303 649.327 973.303 658.327 977.303C667.327 981.303 663.827 980.303 675.327 981.803C686.827 983.303 713.327 977.303 715.827 977.303C718.327 977.303 745.827 969.803 745.827 964.303C745.827 958.803 762.827 843.303 758.327 813.303" stroke="black" stroke-width="5"/>
</g>
</g>
<defs>
<clipPath id="clip0_1_7">
<rect width="1160" height="1016" fill="black"/>
</clipPath>
</defs>
</svg>
